<svg width="134" height="38" viewBox="0 0 134 38" fill="none" xmlns="http://www.w3.org/2000/svg">
<g clip-path="url(#clip0_2008_185)">
<path d="M81.0385 24.5959C81.0889 24.2708 81.1229 24.0507 81.1604 23.8133H83.6463C83.6545 23.9861 83.6662 24.1337 83.6662 24.2824C83.6662 28.3889 83.6674 32.4967 83.6662 36.6033C83.6662 37.6025 83.2745 37.9956 82.2544 37.9979C79.9433 38.0025 77.631 37.999 75.2507 37.999C75.2507 37.3801 75.2319 36.7808 75.2718 36.1849C75.2776 36.1019 75.5743 35.9786 75.7373 35.9763C77.1397 35.959 78.5432 35.967 79.9468 35.9659C80.7406 35.9659 80.886 35.8218 80.8895 35.0381C80.8919 34.5736 80.8895 34.1103 80.8895 33.5709C80.4369 33.8221 80.0676 34.0526 79.6783 34.2405C78.2935 34.9078 76.2462 34.4537 75.2518 33.2873C74.3759 32.2592 73.8576 31.0859 73.8623 29.7444C73.8659 28.7981 73.8811 27.8276 74.0886 26.9114C74.3888 25.5882 75.1416 24.4541 76.4408 23.9078C77.8925 23.2969 79.3722 23.3084 80.6879 24.3642C80.7758 24.4345 80.8755 24.4898 81.0361 24.5959H81.0385ZM80.9118 29.1093C80.9118 28.4881 80.8837 27.8657 80.92 27.2467C80.9529 26.6935 80.6761 26.2982 80.227 26.1299C79.731 25.9444 79.1694 25.8763 78.6335 25.8602C77.9534 25.8406 77.4914 26.2659 77.1959 26.8261C76.476 28.1907 76.4127 29.621 76.9767 31.0352C77.6005 32.6004 79.1295 32.5658 80.1239 32.0887C80.607 31.857 80.974 31.472 80.9212 30.8347C80.8743 30.263 80.9118 29.6844 80.9118 29.1093Z" fill="#0026FF"/>
<path d="M44.3582 13.8988C43.5304 14.7205 42.6005 15.1205 41.4795 15.0974C39.8719 15.064 38.5247 14.0451 37.9255 12.5514C37.1926 10.7258 37.1727 8.88511 37.7472 7.04332C38.2468 5.4401 39.3208 4.38435 41.0598 4.10428C42.0787 3.93947 43.0062 4.16998 43.8165 4.81657C43.9196 4.8984 44.0463 4.95142 44.2316 5.0586C44.248 4.84538 44.2702 4.68863 44.2714 4.53303C44.2738 3.16955 44.2831 1.80492 44.2667 0.441436C44.262 0.0968201 44.3863 -0.00806309 44.7217 -0.00114771C45.5026 0.0149882 46.2847 0.00346254 47.1161 0.00346254V0.563608C47.1161 5.13928 47.1161 9.71611 47.1161 14.2918C47.1161 14.8957 47.1149 14.8969 46.5052 14.9015C46.0584 14.9038 45.6105 14.8877 45.1637 14.9061C44.7698 14.9222 44.4966 14.8439 44.4989 14.3782C44.4989 14.2399 44.4203 14.1005 44.3582 13.8965V13.8988ZM44.296 9.61123C44.296 8.99115 44.3336 8.36761 44.2796 7.75214C44.255 7.46515 44.1143 7.13667 43.9173 6.92691C43.3357 6.30683 42.5735 6.17428 41.7645 6.37022C40.8522 6.59036 40.5016 7.33492 40.2976 8.1152C40.0584 9.02688 40.076 9.95469 40.246 10.8986C40.4946 12.276 41.3752 12.9894 42.7846 12.8557C43.4846 12.79 44.4438 12.0696 44.3113 11.1972C44.2327 10.6797 44.2972 10.1403 44.296 9.61123Z" fill="#0026FF"/>
<path d="M68.9469 5.08751C68.9469 3.51541 68.9469 2.07817 68.9469 0.639769C68.9469 0.217163 69.1685 0.00585938 69.6117 0.00585938C70.3024 0.00585938 70.993 0.00585938 71.7177 0.00585938C71.7282 0.193727 71.7423 0.340103 71.7423 0.485326C71.7435 5.1071 71.7376 9.72773 71.7528 14.3495C71.754 14.7794 71.6461 14.9477 71.19 14.912C70.7151 14.8751 70.2344 14.8912 69.7571 14.9073C69.3843 14.92 69.1884 14.8048 69.1638 14.4025C69.138 13.9738 69.0278 13.9311 68.7007 14.2043C67.4999 15.2059 66.1515 15.3303 64.7374 14.8013C63.6996 14.4129 63.0043 13.6096 62.5963 12.6195C62.0006 11.1753 61.8599 9.66203 62.1354 8.12221C62.3664 6.83134 62.8308 5.67647 63.9377 4.82818C65.1149 3.92457 66.9688 3.8001 68.2093 4.61381C68.4204 4.75211 68.635 4.88696 68.9481 5.08866L68.9469 5.08751ZM68.9832 9.54793C68.9832 8.94283 68.9868 8.33659 68.9809 7.73149C68.9797 7.59779 68.9774 7.45026 68.9211 7.33386C68.3266 6.08909 66.2512 5.8943 65.4866 7.04802C65.1888 7.49752 64.9918 8.05882 64.9168 8.5913C64.7725 9.60901 64.7526 10.6406 65.1677 11.6295C65.7528 13.0241 67.1153 13.1289 68.1636 12.6276C68.7042 12.3694 69.0548 11.8726 68.9938 11.1823C68.9457 10.6417 68.9844 10.0931 68.9832 9.54793Z" fill="#0026FF"/>
<path d="M2.99254 7.83866C2.99254 8.61203 2.91867 9.39347 3.0113 10.1553C3.12622 11.1016 3.37128 12.0593 4.31285 12.5757C5.57454 13.2672 7.72972 12.7832 7.88919 10.9137C7.91733 10.5818 7.91968 10.2475 7.9185 9.91443C7.91733 9.63551 8.03107 9.48452 8.32539 9.48452C9.0043 9.48452 9.68322 9.47069 10.3598 9.4972C10.4677 9.50181 10.6541 9.68046 10.6588 9.78649C10.762 11.679 10.0256 13.6407 8.08853 14.5558C6.68965 15.2162 5.20518 15.2854 3.73361 14.8589C1.84812 14.3126 0.810392 12.9261 0.395302 11.1258C-0.119455 8.88749 -0.155805 6.61003 0.430479 4.37751C0.903025 2.57606 1.97944 1.17569 3.86376 0.617854C5.22042 0.21561 6.59467 0.322798 7.92085 0.881791C8.6584 1.19298 9.25289 1.65631 9.72192 2.28792C10.4794 3.30794 10.7139 4.46972 10.6588 5.70181C10.6541 5.80208 10.4571 5.97036 10.3445 5.97497C9.6668 6.00032 8.98789 5.98649 8.31014 5.98765C7.97479 5.98765 7.9103 5.79632 7.91733 5.51048C7.93257 4.85813 7.93257 4.19771 7.59487 3.60991C6.99569 2.56914 5.33182 2.22914 4.30699 2.90223C3.36659 3.51886 3.13325 4.49277 3.01365 5.47706C2.91867 6.25389 2.99489 7.05146 2.99489 7.83866H2.99254Z" fill="#0026FF"/>
<path d="M89.8175 29.9849C89.909 30.9012 90.3803 31.5017 91.0862 31.9489C91.7874 32.3926 92.5578 32.4064 93.354 32.2981C94.1724 32.1863 94.8642 31.8302 95.5021 31.2066C95.9336 31.6573 96.3405 32.0618 96.7134 32.4952C96.772 32.5643 96.7216 32.8006 96.643 32.8951C96.038 33.6166 95.2301 34.0592 94.3424 34.3185C92.4441 34.8729 90.6231 34.6862 88.9732 33.5498C87.7221 32.6877 87.0373 31.4717 86.9224 29.9803C86.811 28.5304 86.9213 27.1116 87.7608 25.8357C88.5605 24.6209 89.6756 23.8533 91.1226 23.6423C92.5156 23.4395 93.8851 23.5294 95.0788 24.4111C96.3299 25.3343 97.0077 26.5641 97.1027 28.0958C97.132 28.5638 97.0956 29.0363 97.1226 29.5043C97.1437 29.865 97.0089 29.9688 96.6465 29.9665C94.5652 29.9515 92.4827 29.9584 90.4014 29.9607C90.2197 29.9607 90.0368 29.9757 89.8187 29.9849H89.8175ZM94.2768 27.9979C94.3284 26.6955 93.4876 25.8057 92.2025 25.7792C90.9021 25.7527 89.9054 26.7001 89.8363 27.9979H94.2756H94.2768Z" fill="#0026FF"/>
<path d="M59.6018 14.9478C58.679 14.9478 57.8054 14.9593 56.933 14.9316C56.831 14.9282 56.7231 14.7103 56.641 14.5778C56.5543 14.4372 56.4956 14.2804 56.4311 14.1444C55.9187 14.4003 55.4345 14.7219 54.9009 14.8936C53.1925 15.4445 50.8661 14.9847 49.9984 13.2097C49.5329 12.2588 49.6631 10.8135 50.3103 9.9906C51.2015 8.85533 52.4667 8.56373 53.8034 8.44271C54.5081 8.37932 55.2199 8.38623 55.9293 8.38854C56.2295 8.38854 56.3291 8.28596 56.3409 7.99667C56.3737 7.22214 56.1931 6.57786 55.3758 6.27474C54.6066 5.99005 53.8445 5.90015 53.1737 6.49257C53.0049 6.6424 52.8607 6.87061 52.8102 7.08614C52.7481 7.34893 52.6426 7.43767 52.3799 7.43306C51.7174 7.42154 51.0537 7.42154 50.3912 7.43306C50.0793 7.43882 49.9937 7.31665 50.0242 7.01814C50.1462 5.8091 51.1757 4.83058 52.2814 4.43755C53.4739 4.01341 54.6946 3.87971 55.9539 4.18168C57.3 4.5044 58.4433 5.09336 58.9475 6.44186C59.128 6.92363 59.1468 7.47801 59.1597 8.00128C59.2031 9.83385 59.1902 11.6676 59.2477 13.499C59.2617 13.9508 59.4622 14.3968 59.6018 14.9455V14.9478ZM56.3749 11.1397C56.3784 9.79582 56.3831 10.0425 55.3641 10.0183C55.2562 10.016 55.1472 10.0079 55.0416 10.0217C54.29 10.1243 53.5068 10.092 52.9146 10.7167C52.3869 11.2734 52.4127 12.3522 53.0541 12.713C53.8421 13.1555 54.6864 13.0276 55.4591 12.6911C56.1544 12.3891 56.5754 11.8428 56.376 11.1386L56.3749 11.1397Z" fill="#0026FF"/>
<path d="M40.7572 29.9644C40.6716 30.9257 41.5429 31.9929 42.6181 32.2246C43.8411 32.4874 45.0031 32.3687 45.9904 31.5158C46.2566 31.2853 46.4923 31.2599 46.7385 31.5365C47.0774 31.9169 47.4233 32.2914 47.7575 32.6591C46.2249 34.5309 43.2536 35.0184 41.1946 34.2381C39.7817 33.7022 38.7592 32.8136 38.1659 31.4731C37.6804 30.377 37.6746 29.2072 37.8434 28.0408C37.9595 27.2444 38.2034 26.4941 38.6665 25.8094C39.4944 24.5843 40.6294 23.8236 42.1033 23.6242C43.5937 23.4225 45.0406 23.5954 46.2378 24.5877C47.1513 25.3449 47.754 26.3258 47.9169 27.5083C48.0014 28.1215 47.9779 28.7473 48.0248 29.3651C48.0577 29.7973 47.8958 29.9506 47.4432 29.9471C45.4076 29.9275 43.3732 29.9379 41.3377 29.9391C41.143 29.9391 40.9472 29.9552 40.7584 29.9644H40.7572ZM40.7525 27.9912H45.1509C45.2517 26.7234 44.4028 25.821 43.0848 25.7656C41.7422 25.7103 40.6705 26.9101 40.7525 27.9912Z" fill="#0026FF"/>
<path d="M126.644 29.9379C126.701 30.9453 127.605 32.0552 128.686 32.2511C129.868 32.4655 130.979 32.341 131.923 31.54C132.255 31.2576 132.49 31.2772 132.756 31.6138C132.943 31.8489 133.184 32.0437 133.403 32.2546C133.663 32.5047 133.694 32.7294 133.41 33.0095C132.444 33.9615 131.253 34.4479 129.925 34.5712C128.026 34.7487 126.337 34.252 125.004 32.8366C124.237 32.0229 123.826 31.0375 123.732 29.9518C123.597 28.3866 123.804 26.8767 124.799 25.5686C125.644 24.4575 126.754 23.7706 128.169 23.6081C129.127 23.4986 130.087 23.532 130.988 23.8881C132.378 24.4402 133.298 25.4464 133.635 26.8929C133.812 27.6524 133.912 28.435 133.982 29.213C134.045 29.8976 133.972 29.9368 133.282 29.9368C131.31 29.9379 129.337 29.9368 127.364 29.9368C127.136 29.9368 126.907 29.9368 126.643 29.9368L126.644 29.9379ZM126.642 27.9843H131.114C131.146 26.6646 130.33 25.8394 129.059 25.768C127.846 25.7 126.693 26.7615 126.642 27.9843Z" fill="#0026FF"/>
<path d="M77.2701 7.43067C76.5525 7.43067 75.7821 7.42836 75.0117 7.43067C74.5697 7.43297 74.6494 7.12869 74.7057 6.88896C74.9402 5.88969 75.5312 5.11862 76.461 4.68295C78.574 3.6929 80.6647 3.7367 82.6229 5.07367C83.534 5.69606 83.8377 6.6815 83.8611 7.72342C83.8963 9.269 83.8377 10.8169 83.8858 12.3613C83.908 13.0921 84.0839 13.8193 84.1883 14.5477C84.2047 14.6618 84.2176 14.7771 84.2387 14.95C83.3499 14.95 82.5056 14.9604 81.6626 14.9373C81.5547 14.9339 81.4245 14.7759 81.3542 14.6595C81.2475 14.4844 81.183 14.2838 81.1091 14.1109C80.5779 14.3887 80.1159 14.7275 79.5965 14.882C78.0886 15.3326 76.6416 15.1863 75.3975 14.1501C74.6459 13.5243 74.3856 12.6783 74.4114 11.7159C74.4618 9.88217 75.8959 8.83449 77.3932 8.62011C78.4099 8.47373 79.4452 8.44492 80.4748 8.38499C81.0036 8.35387 81.0821 8.29624 81.0669 7.76952C81.0423 6.91316 80.4185 6.20895 79.5437 6.10752C78.9129 6.03491 78.2574 5.99342 77.7966 6.55241C77.5996 6.79099 77.473 7.08605 77.2713 7.42836L77.2701 7.43067ZM79.9389 10.0043C79.7231 10.0043 79.505 9.98475 79.2928 10.0078C78.6631 10.0758 78.0534 10.1761 77.5726 10.659C77.1634 11.0693 77.147 11.5511 77.2443 12.049C77.3381 12.5261 77.6735 12.8443 78.1613 12.8708C78.7042 12.9007 79.2811 12.9226 79.7923 12.7786C80.6999 12.5227 81.1161 12.0697 81.0775 11.1212C81.0235 9.81762 81.1713 10.0182 79.9389 10.0043Z" fill="#0026FF"/>
<path d="M118.118 14.0741C117.905 14.1952 117.715 14.2805 117.554 14.4015C116.005 15.5529 113.196 15.3097 111.989 13.7169C111.386 12.9204 111.28 12.0191 111.498 11.0879C111.849 9.58837 112.954 8.8588 114.395 8.62598C115.559 8.43812 116.747 8.39778 117.949 8.28943C118.295 7.05504 117.663 6.28282 116.373 6.10187C115.856 6.02926 115.308 6.02119 114.908 6.45225C114.744 6.62974 114.576 6.84412 114.518 7.06887C114.445 7.3524 114.309 7.43769 114.038 7.43423C113.376 7.42617 112.713 7.42386 112.051 7.43423C111.718 7.44 111.613 7.31782 111.679 6.9928C111.951 5.64661 112.827 4.86171 114.092 4.4076C115.253 3.99153 116.423 3.90278 117.63 4.18285C119.03 4.50903 120.189 5.13026 120.666 6.56751C120.782 6.91673 120.8 7.3086 120.805 7.68088C120.829 9.4224 120.805 11.1651 120.855 12.9054C120.871 13.4356 121.047 13.9658 121.184 14.4879C121.274 14.8291 121.196 14.9674 120.826 14.9605C120.194 14.9466 119.562 14.9374 118.931 14.9639C118.492 14.9824 118.269 14.8003 118.205 14.3888C118.193 14.3035 118.161 14.2205 118.12 14.073L118.118 14.0741ZM116.96 9.94682C116.431 10.0217 115.898 10.0725 115.376 10.1785C114.724 10.3099 114.193 11.0187 114.199 11.686C114.205 12.3442 114.587 12.7798 115.361 12.9158C116.198 13.0634 116.954 12.8524 117.654 12.3591C118.221 11.9603 118.005 11.4083 118.021 10.9104C118.051 10.0056 118.03 10.0044 116.959 9.94797L116.96 9.94682Z" fill="#0026FF"/>
<path d="M13.3886 23.8221H15.8475C15.9354 24.2278 16.021 24.622 16.1207 25.0761C16.3939 24.8329 16.6097 24.6278 16.8383 24.4387C17.9452 23.5282 19.187 23.4095 20.5589 23.7334C21.5626 23.9708 22.2603 24.539 22.612 25.4299C22.8852 26.1226 23.0717 26.8891 23.094 27.629C23.1573 29.7175 23.1069 31.8105 23.1244 33.9001C23.128 34.315 22.9509 34.4303 22.5733 34.4222C21.9882 34.4107 21.4008 34.3992 20.8168 34.4268C20.3959 34.4464 20.2939 34.2678 20.2962 33.8886C20.3091 31.95 20.315 30.0102 20.2915 28.0705C20.2857 27.6244 20.22 27.1542 20.064 26.7393C19.8014 26.0408 19.0932 25.7261 18.0988 25.8195C17.7095 25.8564 17.2956 25.929 16.9556 26.103C16.4279 26.3727 16.1477 26.8049 16.1594 27.4619C16.1981 29.5826 16.1629 31.7033 16.1828 33.8252C16.1875 34.2747 16.0597 34.4534 15.5848 34.428C14.9704 34.3946 14.3525 34.413 13.7357 34.4222C13.4719 34.4257 13.3441 34.3496 13.3452 34.0603C13.3523 30.7121 13.3511 27.3639 13.3534 24.0157C13.3534 23.9581 13.3734 23.9016 13.3886 23.821V23.8221Z" fill="#0026FF"/>
<path d="M89.6863 5.52531C90.5903 4.7139 91.5002 4.1722 92.6282 4.10996C94.1866 4.02352 95.6007 4.52603 96.2304 5.99209C96.5317 6.69516 96.6537 7.51232 96.6759 8.28339C96.7334 10.2969 96.6924 12.3127 96.6865 14.3263C96.6853 14.9049 96.6466 14.9383 96.051 14.9406C95.5116 14.9429 94.971 14.9233 94.4328 14.9464C94.0107 14.9648 93.8641 14.8046 93.8677 14.3908C93.8829 12.4972 93.8735 10.6035 93.8735 8.70984C93.8735 8.63377 93.8735 8.55885 93.8735 8.48278C93.8594 7.78202 93.8794 7.00059 93.177 6.62716C92.2683 6.14423 91.2856 6.14884 90.3722 6.71706C89.9818 6.95909 89.7895 7.31063 89.7906 7.77972C89.7988 9.96152 89.7953 12.1422 89.793 14.324C89.793 14.9187 89.773 14.9371 89.1692 14.9394C88.5993 14.9417 88.0283 14.9291 87.4584 14.9441C87.1301 14.9521 86.9964 14.8507 86.9976 14.5038C87.0081 11.2316 87.0069 7.95952 86.9999 4.68739C86.9999 4.38196 87.1008 4.2402 87.4232 4.24711C87.9778 4.25864 88.5325 4.25979 89.0871 4.24481C89.406 4.23559 89.5233 4.37966 89.5491 4.67241C89.5749 4.95824 89.637 5.24062 89.6839 5.52415L89.6863 5.52531Z" fill="#0026FF"/>
<path d="M102.648 25.1017C103.066 24.7744 103.417 24.4908 103.777 24.2188C104.778 23.4639 105.91 23.4558 107.068 23.7025C108.825 24.0759 109.525 25.3679 109.606 26.9297C109.729 29.3028 109.662 31.6851 109.68 34.0629C109.681 34.3084 109.578 34.4225 109.321 34.4202C108.627 34.4144 107.934 34.4086 107.24 34.4213C106.891 34.4282 106.892 34.2219 106.892 33.9753C106.896 32.0355 106.907 30.0969 106.887 28.1571C106.882 27.695 106.85 27.204 106.685 26.781C106.561 26.464 106.25 26.1482 105.939 25.9823C105.124 25.5489 103.663 25.8463 103.062 26.5436C102.893 26.7395 102.79 27.0541 102.786 27.3146C102.765 29.4964 102.762 31.6782 102.784 33.86C102.789 34.3072 102.638 34.4467 102.201 34.4259C101.617 34.3983 101.03 34.4098 100.445 34.4213C100.097 34.4282 99.9427 34.3038 99.9439 33.9442C99.9509 30.702 99.9509 27.4598 99.9439 24.2165C99.9439 23.91 100.041 23.7786 100.369 23.7889C100.955 23.8074 101.541 23.8074 102.126 23.7889C102.427 23.7786 102.54 23.9019 102.555 24.1785C102.572 24.4632 102.61 24.7479 102.647 25.0994L102.648 25.1017Z" fill="#0026FF"/>
<path d="M3.92332 27.2258C3.92332 25.7563 3.90925 24.2856 3.9327 22.8161C3.93974 22.3874 3.78261 22.2548 3.37104 22.2686C2.78593 22.2894 2.19965 22.2663 1.61336 22.2756C1.3038 22.2802 1.1584 22.1557 1.16427 21.8445C1.17365 21.3904 1.16544 20.9351 1.16778 20.481C1.16896 20.2079 1.29559 20.0649 1.59108 20.0649C4.13438 20.0684 6.67769 20.0696 9.22216 20.0649C9.49654 20.0649 9.61614 20.1814 9.61497 20.4453C9.61263 20.9305 9.61028 21.4146 9.61732 21.8998C9.62201 22.1718 9.49185 22.2767 9.22333 22.2744C8.57607 22.2686 7.92764 22.2871 7.28156 22.2698C6.88875 22.2594 6.73514 22.3966 6.73631 22.7965C6.74804 25.7356 6.74804 28.6757 6.73631 31.6148C6.73514 32.0262 6.88171 32.1911 7.30149 32.1784C7.91709 32.1599 8.53503 32.1841 9.15063 32.1703C9.48012 32.1634 9.63373 32.274 9.62083 32.6152C9.60324 33.0693 9.60676 33.5246 9.61966 33.9787C9.62787 34.2737 9.5024 34.3752 9.20692 34.374C6.66361 34.3671 4.12031 34.3682 1.57584 34.374C1.27801 34.374 1.1584 34.2507 1.16427 33.9649C1.17248 33.5107 1.17013 33.0555 1.16544 32.6014C1.16192 32.2925 1.31318 32.1692 1.62157 32.1726C2.23834 32.1807 2.85511 32.1657 3.47188 32.1772C3.80255 32.183 3.93153 32.0666 3.92918 31.7254C3.91394 30.2259 3.92332 28.7253 3.92332 27.2247V27.2258Z" fill="#0026FF"/>
<path d="M32.2845 13.5678C31.8917 13.8962 31.5657 14.1544 31.255 14.4299C30.6054 15.005 29.8186 15.126 28.9872 15.1122C26.8672 15.0753 25.6513 13.7061 25.5117 11.8723C25.3288 9.47617 25.4308 7.05809 25.4086 4.65039C25.4062 4.3657 25.5317 4.24238 25.8283 4.24814C26.4287 4.25967 27.0314 4.27119 27.6317 4.24353C28.0492 4.22394 28.1957 4.35879 28.1922 4.78293C28.1735 6.70656 28.1735 8.63134 28.1922 10.555C28.1957 11.0045 28.2415 11.4666 28.3599 11.8977C28.5112 12.4463 28.9016 12.799 29.5137 12.844C30.3427 12.9039 31.1752 12.9177 31.7604 12.2089C31.9468 11.9841 32.0945 11.6545 32.0992 11.3698C32.1274 9.24911 32.1145 7.12724 32.1145 5.00653C32.1145 4.5017 32.3787 4.24929 32.9071 4.24929C33.416 4.24929 33.9249 4.25967 34.4326 4.24584C34.7785 4.23662 34.9357 4.35648 34.9345 4.71839C34.9263 7.99051 34.9275 11.2638 34.9345 14.5359C34.9345 14.8529 34.8079 14.967 34.4948 14.9589C33.9402 14.9462 33.3844 14.9439 32.8297 14.9589C32.4803 14.9681 32.315 14.8402 32.3232 14.4852C32.3291 14.2144 32.3021 13.9423 32.2857 13.5643L32.2845 13.5678Z" fill="#0026FF"/>
<path d="M56.4804 25.7103C56.4804 27.6812 56.491 29.652 56.4722 31.6229C56.4687 32.039 56.5977 32.1946 57.0233 32.1808C57.7163 32.1577 58.4117 32.1923 59.1046 32.1692C59.5338 32.1554 59.6839 32.3214 59.6569 32.7317C59.6299 33.1397 59.6405 33.55 59.6534 33.9592C59.6616 34.2439 59.5584 34.3741 59.2536 34.3729C56.4312 34.3683 53.6088 34.3729 50.7864 34.3568C50.668 34.3568 50.4558 34.1701 50.4487 34.0594C50.4124 33.5466 50.4347 33.0302 50.4323 32.5139C50.4311 32.22 50.6164 32.1715 50.8603 32.1727C51.6319 32.1762 52.4034 32.1612 53.1738 32.1773C53.5478 32.1854 53.6932 32.0551 53.6921 31.6759C53.6827 28.4614 53.6827 25.2481 53.6921 22.0336C53.6932 21.6475 53.5701 21.4861 53.1597 21.4988C52.4046 21.5219 51.6483 21.4942 50.8931 21.5092C50.5554 21.5161 50.4147 21.3962 50.4265 21.0608C50.4429 20.5917 50.4335 20.1215 50.4323 19.6513C50.4323 19.3712 50.5601 19.2363 50.8533 19.2363C52.5957 19.2398 54.3393 19.2409 56.0818 19.2363C56.4628 19.2352 56.4851 19.4645 56.4839 19.7492C56.4793 21.7351 56.4816 23.721 56.4816 25.7068L56.4804 25.7103Z" fill="#0026FF"/>
<path d="M28.0747 29.5346C28.0747 28.4443 28.0618 27.3528 28.0818 26.2625C28.0888 25.8868 27.954 25.7404 27.5764 25.7531C27.0839 25.7692 26.5903 25.7461 26.0966 25.7588C25.7519 25.768 25.576 25.6482 25.5912 25.2863C25.6065 24.9082 25.6053 24.529 25.5912 24.1498C25.5819 23.8709 25.7026 23.7764 25.977 23.7822C26.5316 23.7937 27.0874 23.7718 27.6409 23.7902C27.9692 23.8018 28.0794 23.6646 28.0759 23.3626C28.0677 22.7414 28.0841 22.1202 28.0724 21.499C28.0665 21.2062 28.1814 21.0933 28.4805 21.1002C29.1277 21.114 29.775 21.1186 30.4222 21.1002C30.7986 21.0886 30.903 21.2558 30.8924 21.5946C30.876 22.1548 30.9042 22.7161 30.883 23.2762C30.869 23.6554 30.978 23.8098 31.4013 23.7972C32.4332 23.7672 33.4662 23.7949 34.4993 23.7822C34.81 23.7787 34.953 23.8652 34.9331 24.1936C34.9108 24.5556 34.912 24.9209 34.9331 25.284C34.9542 25.6493 34.7807 25.7623 34.4371 25.76C33.4357 25.7508 32.4332 25.775 31.4318 25.7496C31.0038 25.7392 30.876 25.881 30.8807 26.2982C30.9018 28.0098 30.8866 29.7225 30.8913 31.434C30.8936 32.0887 30.9675 32.1648 31.6311 32.1717C32.5399 32.1821 33.4498 32.1878 34.3597 32.1694C34.756 32.1613 34.9225 32.2916 34.8968 32.695C34.8698 33.1179 34.8815 33.5432 34.8932 33.9674C34.9014 34.2463 34.81 34.3927 34.5028 34.3915C32.8225 34.3846 31.1422 34.4042 29.4631 34.3754C28.6739 34.3616 28.0888 33.7092 28.0794 32.899C28.0677 31.7775 28.0759 30.6572 28.0759 29.5358L28.0747 29.5346Z" fill="#0026FF"/>
<path d="M112.026 23.7866C112.754 23.7866 113.416 23.767 114.074 23.7946C114.431 23.8096 114.531 23.6782 114.522 23.3532C114.507 22.732 114.529 22.1107 114.514 21.4895C114.507 21.1944 114.613 21.093 114.916 21.0999C115.682 21.1172 116.449 21.1057 117.278 21.1057C117.278 21.8387 117.303 22.5176 117.27 23.1941C117.247 23.6448 117.383 23.8119 117.863 23.7969C118.88 23.7647 119.897 23.7969 120.915 23.7808C121.245 23.775 121.401 23.8603 121.377 24.2107C121.354 24.5576 121.356 24.908 121.377 25.2561C121.398 25.6284 121.249 25.769 120.867 25.7621C119.881 25.7448 118.894 25.754 117.908 25.7586C117.29 25.7609 117.279 25.7747 117.278 26.3625C117.278 28.0142 117.277 29.6658 117.278 31.3174C117.278 32.0032 117.444 32.168 118.154 32.1738C119.032 32.1807 119.912 32.1887 120.79 32.1703C121.191 32.1622 121.348 32.3075 121.326 32.7016C121.302 33.1246 121.313 33.5499 121.322 33.9741C121.328 34.2541 121.225 34.3936 120.921 34.3924C119.241 34.3855 117.561 34.4051 115.88 34.3752C115.122 34.3625 114.52 33.6905 114.519 32.9414C114.515 30.7296 114.505 28.5167 114.527 26.3049C114.532 25.8566 114.385 25.7217 113.948 25.7505C113.457 25.7828 112.962 25.7505 112.468 25.7586C112.163 25.7632 112.013 25.6433 112.021 25.3275C112.033 24.8319 112.025 24.3352 112.025 23.7877L112.026 23.7866Z" fill="#0026FF"/>
<path d="M103.141 6.51776C102.229 6.51776 101.337 6.50162 100.446 6.52468C100.034 6.5362 99.8503 6.4244 99.8831 5.98989C99.9159 5.55307 99.9007 5.11163 99.8878 4.67251C99.8796 4.37976 100.012 4.25297 100.298 4.25297C102.056 4.25297 103.814 4.25643 105.571 4.24952C105.95 4.24836 105.98 4.46505 105.979 4.75434C105.975 7.19431 105.976 9.63429 105.977 12.0743C105.977 12.49 106.188 12.6982 106.611 12.699C107.305 12.699 108 12.7093 108.693 12.6943C108.976 12.6886 109.078 12.79 109.069 13.062C109.056 13.455 109.067 13.8504 109.067 14.2445C109.067 14.6833 108.835 14.903 108.373 14.9038C106.353 14.9038 104.333 14.9038 102.313 14.9038C101.681 14.9038 101.049 14.8957 100.417 14.9061C100.032 14.9119 99.8526 14.777 99.8843 14.3713C99.9159 13.9795 99.9136 13.5818 99.8843 13.1899C99.8573 12.8177 99.9793 12.6805 100.372 12.692C101.173 12.7162 101.975 12.692 102.777 12.7024C103.062 12.7059 103.198 12.6263 103.196 12.3175C103.185 10.4538 103.189 8.58892 103.186 6.72522C103.186 6.68258 103.167 6.63878 103.141 6.51776Z" fill="#0026FF"/>
<path d="M22.5381 12.6989C22.5381 13.3847 22.5381 14.0036 22.5381 14.6214C22.5381 14.9211 22.3153 14.9015 22.1148 14.9015C21.1122 14.9038 20.1108 14.9038 19.1083 14.9038C17.5054 14.9038 15.9013 14.8945 14.2984 14.9107C13.8892 14.9153 13.7051 14.8035 13.7297 14.3701C13.7614 13.8307 13.7368 13.289 13.7368 12.6989C14.6291 12.6989 15.4428 12.6828 16.2566 12.7058C16.6693 12.7174 16.8347 12.5906 16.83 12.1641C16.8124 10.4364 16.8136 8.70874 16.83 6.98105C16.8335 6.61799 16.7092 6.50389 16.3528 6.51311C15.6281 6.53155 14.9035 6.50619 14.1788 6.52348C13.8657 6.53155 13.725 6.43704 13.7344 6.11663C13.7485 5.66252 13.7496 5.20725 13.7321 4.75314C13.718 4.38893 13.8481 4.24025 14.2398 4.24371C15.8743 4.25985 17.5077 4.25985 19.1423 4.24371C19.5363 4.24025 19.6359 4.38893 19.6336 4.7543C19.6207 7.22424 19.6336 9.69418 19.6195 12.1641C19.6172 12.5641 19.7086 12.7289 20.153 12.7081C20.9199 12.6724 21.6891 12.6978 22.5357 12.6978L22.5381 12.6989Z" fill="#0026FF"/>
<path d="M62.533 34.2982C62.533 33.6804 62.5201 33.0338 62.5506 32.3895C62.5541 32.3123 62.7933 32.189 62.9258 32.1855C63.6188 32.1648 64.3141 32.1602 65.0071 32.1809C65.3741 32.1924 65.5336 32.0887 65.5312 31.6992C65.516 29.9565 65.5172 28.2138 65.5312 26.4711C65.5348 26.0608 65.3917 25.9133 64.9625 25.9317C64.1793 25.964 63.3948 25.9409 62.5611 25.9409V23.8214C62.6878 23.8099 62.8062 23.7891 62.9246 23.7891C64.5897 23.7868 66.2547 23.7983 67.9198 23.7799C68.3184 23.7753 68.4076 23.9182 68.4064 24.2813C68.3935 26.6751 68.3993 29.0702 68.3993 31.464C68.3993 31.9373 68.6335 32.1744 69.1017 32.1752C69.6728 32.1752 70.2426 32.1855 70.8125 32.1729C71.1537 32.1648 71.3296 32.2674 71.3097 32.6396C71.285 33.0926 71.2968 33.549 71.3061 34.0031C71.3108 34.2452 71.2276 34.3719 70.9649 34.3719C68.2059 34.3662 65.4456 34.3639 62.6866 34.3581C62.6584 34.3581 62.6303 34.3362 62.5365 34.2982H62.533Z" fill="#0026FF"/>
<path d="M128.697 14.9049C130.023 14.9049 131.348 14.9153 132.674 14.8991C133.108 14.8945 133.294 15.0386 133.253 15.4812C133.221 15.8269 133.229 16.1785 133.251 16.5254C133.278 16.923 133.11 17.059 132.711 17.0544C131.339 17.0394 129.968 17.0487 128.596 17.0487C127.254 17.0487 125.913 17.0394 124.573 17.0544C124.215 17.059 124.063 16.9449 124.08 16.5865C124.098 16.2084 124.106 15.8269 124.078 15.4512C124.046 15.0374 124.197 14.8899 124.628 14.8957C125.984 14.9164 127.341 14.9037 128.698 14.9037L128.697 14.9049Z" fill="#0026FF"/>
<path d="M19.8256 1.55593C19.8667 2.51832 18.9802 3.00816 18.2403 3.01623C17.3269 3.0266 16.5706 2.32699 16.6152 1.52366C16.6644 0.624659 17.2155 0.109463 18.2216 0.09448C19.2147 0.0806492 19.8292 0.661541 19.8256 1.55478V1.55593Z" fill="#0026FF"/>
<path d="M66.9723 22.4565C65.9744 22.5648 65.3096 21.69 65.326 21.0123C65.3483 20.1168 65.9803 19.5659 67.0145 19.5601C68.0452 19.5543 68.5013 20.1537 68.5845 21.0354C68.6608 21.841 67.9056 22.4588 66.9723 22.4553V22.4565Z" fill="#0026FF"/>
<path d="M108.269 0.376955C107.611 0.997034 106.87 1.55487 106.317 2.25448C105.639 3.11314 104.769 2.95985 103.894 2.94486C103.625 2.94025 103.581 2.76968 103.713 2.57259C104.18 1.86837 104.652 1.16646 105.141 0.477228C105.226 0.356209 105.407 0.231732 105.547 0.228274C106.421 0.205223 107.298 0.216749 108.173 0.216749C108.205 0.269766 108.235 0.322784 108.267 0.375802L108.269 0.376955Z" fill="#0026FF"/>
</g>
<defs>
<clipPath id="clip0_2008_185">
<rect width="134" height="38" fill="white"/>
</clipPath>
</defs>
</svg>
